<?xml version="1.0" standalone="no"?>
<!DOCTYPE svg PUBLIC "-//W3C//DTD SVG 20010904//EN"
 "http://www.w3.org/TR/2001/REC-SVG-20010904/DTD/svg10.dtd">
<svg version="1.0" xmlns="http://www.w3.org/2000/svg"
 width="500.000000pt" height="500.000000pt" viewBox="0 0 500.000000 500.000000"
 preserveAspectRatio="xMidYMid meet">
<metadata>
Created by potrace 1.16, written by Peter Selinger 2001-2019
</metadata>
<g transform="translate(0.000000,500.000000) scale(0.100000,-0.100000)"
fill="#000000" stroke="none">
<path d="M1406 3979 c-54 -4 -161 -20 -237 -33 -225 -42 -380 -109 -482 -209
-106 -103 -137 -195 -137 -408 0 -211 39 -385 131 -576 38 -80 53 -101 68
-100 11 0 17 5 15 9 -3 4 1 8 8 8 36 0 36 22 3 89 -97 193 -141 445 -116 666
14 120 41 184 107 255 64 68 140 113 265 154 210 70 437 92 834 81 430 -11
400 -12 397 3 -1 8 2 11 6 8 5 -3 17 3 27 14 10 11 23 17 29 13 7 -4 8 -3 1 4
-25 26 -681 42 -919 22z"/>
</g>
</svg>
